PathFileType	4	(X/Y/Z)	C:/Users/beibeiliu/ov580/test_trc\sequence.2_training_dense_left.trc
DataRate	CameraRate	NumFrames	NumMarkers	Units	OrigDataRate	OrigDataStartFrame	OrigNumFrames
120	120	12	19	mm	120	57	84
Frame#	Time	ThumbCMC			ThumbMCP			ThumbIP			ThumbTip			IndexMCP			IndexPIP			IndexTip			MiddleMCP			MiddlePIP			MiddleTip			RingMCP			RingPIP			RingTip			PinkyMCP			PinkyPIP			PinkyTip			BackHand1			BackHand2			BackHand3	
		X0	Y0	Z0	X1	Y1	Z1	X2	Y2	Z2	X3	Y3	Z3	X4	Y4	Z4	X5	Y5	Z5	X6	Y6	Z6	X7	Y7	Z7	X8	Y8	Z8	X9	Y9	Z9	X10	Y10	Z10	X11	Y11	Z11	X12	Y12	Z12	X13	Y13	Z13	X14	Y14	Z14	X15	Y15	Z15	X16	Y16	Z16	X17	Y17	Z17	X18	Y18	Z18	
56	0.466667	-163.799	140.079	67.8472	-144.338	163.093	75.8019	-122.063	172.715	78.7024	-99.8291	172.772	86.7048	-106.58	145.769	40.1481	-92.4323	160.426	59.383	-108.782	161.64	82.0453	-93.3342	133.267	51.3263	-85.3096	147.639	77.1879	-109.793	144.924	97.1705	-95.5717	117.417	63.558	-91.0706	134.661	89.3617	-115.562	138.464	99.7454	-98.3816	102.836	73.8053	-92.4977	121.127	89.7708	-116.343	128.692	103.373	-134.131	91.429	56.2851	-163.122	84.2122	66.8183	-157.987	114.248	49.8682	
57	0.475	-167.709	127.52	68.6508	-155.809	155.488	68.2863	-134.199	171.482	66.9347	-115.579	179.827	71.6213	-112.819	150.348	33.849	-102.555	168.335	50.1047	-120.554	168.044	72.908	-96.3772	141.559	45.814	-91.2336	162.114	64.2168	-117.614	156.089	88.0652	-91.4119	133.954	60.6915	-95.0597	153.327	79.4068	-116.269	149.71	92.1169	-89.8424	117.666	74.6201	-92.9337	139.769	90.0108	-116.045	142.028	99.1315	-124.612	92.6316	63.7543	-148.884	82.3516	71.6997	-153.031	102.016	53.7611	
58	0.483333	-170.099	120.654	66.0503	-161.262	148.91	60.188	-149.563	167.449	53.8761	-128.207	182.669	53.0188	-121.345	142.94	24.4356	-113.934	168.525	33.1065	-131.124	167.439	61.2073	-103.001	141.817	36.6324	-104.405	169.887	52.8647	-125.896	161.773	74.6603	-94.2085	136.948	51.6196	-100.722	161.318	67.0096	-120.703	155.854	80.2256	-86.8968	128.744	67.6884	-94.303	151.43	74.2909	-119.595	148.36	86.3652	-118.73	96.952	60.8981	-135.953	80.9987	79.9569	-145.282	95.6113	55.4382	
59	0.491667	-172.585	114.462	65.9661	-166.891	140.897	51.1023	-157.533	157.536	38.066	-138.344	171.92	31.2373	-131.596	132.792	10.1616	-131.505	159.775	15.4277	-139.278	160.856	40.279	-110.366	135.888	21.305	-114.041	163.088	27.7458	-129.066	158.42	57.0683	-99.8806	136.024	36.1305	-111.166	159.523	45.7211	-128.075	150.859	67.1601	-91.818	127.587	54.5485	-100.783	153.832	57.013	-119.629	149.291	67.3813	-116.552	92.7527	65.5867	-130.071	81.8723	83.6028	-149.102	89.8911	56.5176	
60	0.5	-178.751	106.637	67.0274	-173.322	125.072	44.1357	-165.864	136.754	19.9589	-150.218	144.157	8.59963	-145.783	99.6646	9.71144	-140.297	126.55	-0.612723	-149.568	136.87	29.2773	-127.717	106.551	10.0067	-124.805	134.547	7.93349	-142.591	140.954	38.352	-110.891	110.906	23.8889	-116.688	138.31	26.0652	-133.42	137.981	46.2522	-101.578	109.503	40.4709	-104.666	133.508	34.5716	-124.728	140.041	49.5249	-125.876	83.2078	62.4976	-138.337	80.4934	90.5324	-152.573	80.8093	66.3518	
61	0.508333	-187.997	92.5319	68.1785	-184.306	100.83	39.8192	-180.024	101.075	16.6432	-165.948	99.8982	-5.35474	-161.789	58.274	18.6269	-155.761	79.2665	-1.59967	-164.362	100.63	19.0577	-143.907	62.3168	13.805	-139.164	88.4818	2.76	-150.681	105.197	27.3821	-124.472	68.1882	26.6486	-129.339	92.824	13.5024	-139.31	107.473	36.2197	-111.789	71.7776	38.3099	-117.166	91.3267	22.7494	-133.57	105.038	34.6029	-138.011	61.5734	71.9769	-147.474	70.754	96.2344	-171.983	63.47	79.3032	
62	0.516667	-195.97	79.8769	72.0141	-192.579	76.504	39.6688	-189.96	71.9732	21.316	-179.872	61.334	-1.08539	-182.477	27.9087	28.6152	-175.639	40.9117	6.02832	-174.503	68.5238	23.5098	-164.254	27.0845	27.8789	-158.541	47.9985	5.73121	-158.574	72.8654	24.682	-143.633	32.3459	33.446	-145.287	50.7525	14.659	-150.745	75.8775	31.3992	-130.948	36.6733	46.6736	-131.011	50.0572	24.6873	-142.347	74.3357	28.9336	-156.533	43.3163	85.9911	-161.044	58.9002	103.134	-183.205	51.2958	88.0558	
63	0.525	-203.916	71.1956	74.9876	-204.487	66.3142	44.685	-204.015	56.4075	25.0535	-197.043	43.3726	5.18996	-206.818	15.3174	38.8634	-197.454	25.0402	13.7347	-192.37	52.1745	26.4852	-187.654	8.12399	35.364	-180.704	21.5518	11.9207	-177.749	51.6504	25.154	-169.416	10.4644	44.0889	-166.438	25.9081	19.4296	-163.749	51.2892	28.6353	-155.684	14	54.8488	-150.958	21.6114	29.4986	-160.536	47.4159	28.8177	-174.908	29.5948	89.8619	-169.113	46.11	110.669	-199.559	41.5174	93.6831	
64	0.533333	-213.903	68.9424	78.0717	-216.557	70.5785	48.2165	-222.732	58.1183	23.1406	-216.338	45.5799	7.8944	-233.212	17.0912	40.1921	-223.443	25.9433	14.9935	-212.952	49.6321	23.2653	-219.726	7.75814	37.6682	-205.819	19.9213	12.6911	-194.112	46.2096	26.5682	-197.425	1.27477	42.6425	-192.187	15.3946	19.4576	-185.466	42.3015	27.7915	-184.378	4.21589	52.9215	-180.34	10.0119	28.4501	-175.964	34.7011	25.7682	-194.594	22.0567	90.8812	-186.74	39.1234	108.635	-214.905	43.3249	94.644	
65	0.541667	-222.441	76.1798	78.347	-227.689	76.2556	45.9978	-230.063	73.2548	27.4082	-232.422	60.1883	6.12842	-257.194	35.4984	43.8276	-246.859	37.766	14.7323	-225.462	58.8597	21.9182	-246.481	20.948	35.1919	-229.401	27.6644	10.9452	-209.485	46.9615	22.4832	-230.06	11.7705	38.581	-218.537	23.2555	16.7542	-202.321	42.733	25.4177	-214.15	5.24071	46.6808	-206.483	10.2304	25.2851	-202.376	36.4562	23.066	-215.697	25.4608	88.8244	-205.783	32.7122	106.793	-229.288	47.2112	96.2354	
66	0.55	-224.943	87.3383	77.3493	-226.271	92.859	47.8221	-232.878	89.3368	24.9236	-236.734	80.771	1.98568	-270.586	62.4865	40.964	-262.522	62.8621	11.4514	-234.259	74.3025	17.1972	-264.211	41.7881	30.769	-251.828	48.4973	6.29731	-221.502	59.8319	21.7239	-251.492	28.1571	33.8758	-236.676	34.7591	11.712	-217.927	51.0294	20.0386	-237.937	15.8072	46.0738	-233.608	22.5853	21.8049	-214.716	39.3968	18.79	-237.161	35.3933	85.981	-223.128	38.8134	102.342	-241.988	60.7556	94.5043	
67	0.558333	-220.781	97.1043	76.8029	-217.314	101.679	47.5477	-223.495	104.909	22.9709	-230.43	93.6424	1.67718	-269.613	87.5902	36.5923	-261.531	89.8516	9.28463	-231.364	90.0385	12.7297	-269.061	68.5782	27.9763	-252.34	69.9283	3.21476	-224.31	69.716	17.1152	-263.368	51.5899	29.6914	-244.167	56.4439	8.55517	-222.032	63.0392	20.4502	-256.082	34.7265	35.6872	-244.784	40.7575	14.884	-223.123	54.5652	19.1937	-251.126	49.5088	81.4672	-236.326	50.0715	97.747	-245.956	75.9264	90.3952	
